<svg width="509" height="458" fill="none" xmlns="http://www.w3.org/2000/svg"><path d="M495 229c0 123.455-105.845 224-237 224S21 352.455 21 229 126.845 5 258 5s237 100.545 237 224z" stroke="#85A152" stroke-width="10"/><path stroke="#85A152" stroke-width="6" d="M40 147h436M40 311h436"/><path d="M77.766 248.828c4.093 0 7.421-.812 9.984-2.437 2.563-1.625 3.844-3.75 3.844-6.375 0-2.188-.89-3.985-2.672-5.391-1.844-1.406-4.188-2.109-7.031-2.109H71.437v-5.485h9c2.844 0 5.126-.656 6.844-1.969 1.719-1.312 2.578-2.984 2.578-5.015 0-2.344-1.125-4.25-3.375-5.719-2.28-1.437-5.25-2.156-8.906-2.156-6.156 0-10.703 1.828-13.64 5.484L60 213.109c4.375-4.937 10.563-7.39 18.563-7.359 5.53 0 10.062 1.172 13.593 3.516 3.469 2.406 5.203 5.484 5.203 9.234 0 2.281-.64 4.422-1.921 6.422-1.22 1.969-2.922 3.406-5.11 4.312 2.531.813 4.625 2.328 6.281 4.547 1.657 2.313 2.485 4.828 2.485 7.547 0 4.125-1.89 7.469-5.672 10.031-3.813 2.594-8.703 3.891-14.672 3.891-8.375 0-14.813-2.594-19.313-7.781l3.938-4.5c3 3.906 7.797 5.859 14.39 5.859zm57-36.281V206.5h44.25v6.047h-18.328V254.5h-7.594v-41.953h-18.328zm57.984 35.765c-4.688-4.593-7.031-10.531-7.031-17.812 0-7.25 2.343-13.203 7.031-17.859 4.625-4.594 10.641-6.891 18.047-6.891 7.344 0 13.344 2.297 18 6.891 4.625 4.625 6.937 10.578 6.937 17.859 0 7.281-2.312 13.219-6.937 17.812-4.625 4.626-10.625 6.938-18 6.938-7.406 0-13.422-2.312-18.047-6.938zm1.031-17.812c0 5.344 1.578 9.719 4.735 13.125 3.125 3.406 7.218 5.109 12.281 5.109 5 0 9.062-1.703 12.187-5.109 3.125-3.344 4.688-7.719 4.688-13.125 0-5.469-1.563-9.875-4.688-13.219-3.156-3.343-7.218-5.015-12.187-5.015-5.031 0-9.125 1.672-12.281 5.015-3.157 3.407-4.735 7.813-4.735 13.219zm101.907-.281c0 7.406-2.282 13.437-6.844 18.093-4.594 4.626-10.516 6.938-17.766 6.938-7.656 0-13.812-2.812-18.469-8.438-4.625-5.593-6.937-14.234-6.937-25.921 0-21.938 8.562-33.61 25.687-35.016l19.875-1.734.61 7.593-17.766 1.407c-7.719.625-13.359 3.14-16.922 7.547-3.562 4.406-5.187 10.828-4.875 19.265 1.063-4.219 3.485-7.641 7.266-10.265 3.719-2.626 8.047-3.938 12.984-3.938 6.75 0 12.313 2.281 16.688 6.844 4.312 4.594 6.469 10.468 6.469 17.625zm-24.329-17.953c-4.875 0-8.828 1.703-11.859 5.109-3.031 3.406-4.547 7.781-4.547 13.125 0 5.312 1.516 9.672 4.547 13.078 3 3.438 6.922 5.156 11.766 5.156 4.812 0 8.75-1.718 11.812-5.156 3.031-3.406 4.547-7.766 4.547-13.078 0-5.344-1.516-9.719-4.547-13.125-3.031-3.406-6.937-5.109-11.719-5.109zM312 248.312c-4.688-4.593-7.031-10.531-7.031-17.812 0-7.25 2.343-13.203 7.031-17.859 4.625-4.594 10.641-6.891 18.047-6.891 7.344 0 13.344 2.297 18 6.891 4.625 4.625 6.937 10.578 6.937 17.859 0 7.281-2.312 13.219-6.937 17.812-4.625 4.626-10.625 6.938-18 6.938-7.406 0-13.422-2.312-18.047-6.938zm1.031-17.812c0 5.344 1.578 9.719 4.735 13.125 3.125 3.406 7.218 5.109 12.281 5.109 5 0 9.062-1.703 12.187-5.109 3.125-3.344 4.688-7.719 4.688-13.125 0-5.469-1.563-9.875-4.688-13.219-3.156-3.343-7.218-5.015-12.187-5.015-5.031 0-9.125 1.672-12.281 5.015-3.157 3.407-4.735 7.813-4.735 13.219zm61.781 2.297V254.5h-7.593v-48h7.593v20.25h11.391c.781-6.281 3.375-11.359 7.781-15.234 4.407-3.844 9.844-5.766 16.313-5.766 7.187 0 13.047 2.312 17.578 6.938 4.531 4.624 6.797 10.562 6.797 17.812 0 7.219-2.266 13.141-6.797 17.766-4.563 4.656-10.422 6.984-17.578 6.984-6.719 0-12.297-2.078-16.735-6.234-4.468-4.188-6.953-9.594-7.453-16.219h-11.297zm47.25-15.469c-3.031-3.375-6.937-5.062-11.718-5.062-4.813 0-8.719 1.687-11.719 5.062-3.031 3.406-4.547 7.797-4.547 13.172 0 5.406 1.516 9.781 4.547 13.125 3 3.406 6.906 5.109 11.719 5.109 4.781 0 8.687-1.703 11.718-5.109 3.032-3.344 4.547-7.719 4.547-13.125 0-5.375-1.515-9.766-4.547-13.172z" fill="#85A152"/><g filter="url(#filter0_d)"><path d="M279 118.232c0-6.234-3.353-13.721-9.967-22.251-4.832-6.235-9.594-10.652-9.795-10.837L258 84l-1.238 1.144c-.201.185-4.963 4.602-9.795 10.837-6.614 8.53-9.967 16.017-9.967 22.251 0 10.82 8.454 19.726 19.188 20.636V145h3.624v-6.132c10.734-.91 19.188-9.816 19.188-20.636zm-22.812 4.554l-13.418-13.235c1.19-2.682 2.755-5.312 4.378-7.696l9.04 8.917v12.014zm3.624-12.014l9.04-8.917c1.623 2.384 3.188 5.014 4.378 7.696l-13.418 13.236v-12.015zm6.375-12.579c.178.23.358.465.539.704l-6.914 6.82V90.804a97.092 97.092 0 016.375 7.39zm-9.999-7.39v14.914l-6.914-6.82c.181-.239.361-.474.539-.704a97.076 97.076 0 016.375-7.39zm-15.564 27.429c0-1.612.285-3.287.775-4.978l14.789 14.587v7.437c-8.733-.896-15.564-8.199-15.564-17.046zm19.188 17.046v-7.437l14.789-14.587c.49 1.691.775 3.367.775 4.978 0 8.847-6.831 16.15-15.564 17.046z" fill="#85A152"/></g><defs><filter id="filter0_d" x="233" y="84" width="50" height="69" filterUnits="userSpaceOnUse" color-interpolation-filters="sRGB"><feFlood flood-opacity="0" result="BackgroundImageFix"/><feColorMatrix in="SourceAlpha" values="0 0 0 0 0 0 0 0 0 0 0 0 0 0 0 0 0 0 127 0" result="hardAlpha"/><feOffset dy="4"/><feGaussianBlur stdDeviation="2"/><feComposite in2="hardAlpha" operator="out"/><feColorMatrix values="0 0 0 0 0 0 0 0 0 0 0 0 0 0 0 0 0 0 0.25 0"/><feBlend in2="BackgroundImageFix" result="effect1_dropShadow"/><feBlend in="SourceGraphic" in2="effect1_dropShadow" result="shape"/></filter></defs></svg>